<svg id="Logo" xmlns="http://www.w3.org/2000/svg" width="127.5" height="30" viewBox="0 0 127.5 30">
  <path id="Path_12275" data-name="Path 12275" d="M78.5,32.5V23.463a5.911,5.911,0,0,1,4.2-5.613,12.189,12.189,0,0,1,4.237-.277v3.541c-.2,0-1.581-.031-1.778,0-1.8.122-2.854,1.142-2.854,2.745V32.5Z" transform="translate(-11 -10)" fill="#4300c2"/>
  <path id="Path_12276" data-name="Path 12276" d="M117.032,18.09a7.476,7.476,0,0,0-10.407,6.829,8.232,8.232,0,0,0,.533,2.919,7.508,7.508,0,1,0,9.874-9.748Zm-2.911,11.156a3.816,3.816,0,0,1-2.942-1.378l.01,0a4.28,4.28,0,0,1,.3-5.954,3.855,3.855,0,0,1,6.295,1.431,4.3,4.3,0,0,1-.718,4.525A3.815,3.815,0,0,1,114.121,29.247Z" transform="translate(-11 -10)" fill="#4300c2" fill-rule="evenodd"/>
  <path id="Path_12277" data-name="Path 12277" d="M124.438,32.46v-8.3A6.337,6.337,0,0,1,128.727,18c5.22-1.787,9.773,1.429,9.773,6.161V32.5h-3.524V24.222a3.274,3.274,0,0,0-3.458-3.424,3.334,3.334,0,0,0-3.553,3.424V32.46Z" transform="translate(-11 -10)" fill="#4300c2"/>
  <path id="Path_12278" data-name="Path 12278" d="M104.739,24.647v-.128a9.412,9.412,0,0,0-.534-2.579,7.006,7.006,0,0,0-6.8-4.572h-3.16v3.76h3.1a3.559,3.559,0,0,1,3.767,3.391H101.1c0,.081.011.162.011.243a4.219,4.219,0,0,1-1.273,3.031,4.331,4.331,0,0,1-3.082,1.23,4.437,4.437,0,0,1-4.317-4.667V10H88.813V24.456c0,4.88,3.234,8.074,7.963,8.044a7.655,7.655,0,0,0,7.956-7.2h.015C104.754,25.087,104.75,24.868,104.739,24.647Z" transform="translate(-11 -10)" fill="#4300c2"/>
  <path id="Path_12279" data-name="Path 12279" d="M59.75,25.285v.127a9.234,9.234,0,0,0,.533,2.557A7,7,0,0,0,67.09,32.5h3.178V28.773H67.16a3.547,3.547,0,0,1-3.769-3.361H63.4a1.892,1.892,0,0,0-.01-.241,4.161,4.161,0,0,1,1.274-3,4.359,4.359,0,0,1,3.085-1.219,4.416,4.416,0,0,1,4.323,4.626V32.45h3.612V25.474c0-4.838-3.24-8-7.974-7.974a7.643,7.643,0,0,0-7.964,7.133Z" transform="translate(-11 -10)" fill="#4300c2"/>
  <path id="Path_12280" data-name="Path 12280" d="M57.873,28.741H53.036a3.562,3.562,0,0,1-3.742-3.79,3.538,3.538,0,0,1,3.742-3.7h4.839V17.5h-4.9c-5.175,0-8.687,4.86-6.736,10.432A6.929,6.929,0,0,0,52.97,32.5h4.9Z" transform="translate(-11 -10)" fill="#4300c2"/>
  <path id="Path_12281" data-name="Path 12281" d="M37.248,17.5H28.813l8.438,15v-15Z" transform="translate(-11 -10)" fill="#9b7dd4"/>
  <path id="Path_12282" data-name="Path 12282" d="M37.25,17.5,24.125,10,28.5,17.5Z" transform="translate(-11 -10)" fill="#4300c2"/>
  <path id="Path_12283" data-name="Path 12283" d="M28.813,17.5,24.36,10,11,17.5Z" transform="translate(-11 -10)" fill="#9b7dd4"/>
  <path id="Path_12284" data-name="Path 12284" d="M11,32.5h8.438L11,17.5Z" transform="translate(-11 -10)" fill="#9b7dd4"/>
  <path id="Path_12285" data-name="Path 12285" d="M11,32.5,24.125,40l-4.374-7.5Z" transform="translate(-11 -10)" fill="#4300c2"/>
  <path id="Path_12286" data-name="Path 12286" d="M19.438,32.5,23.892,40,37.25,32.5Z" transform="translate(-11 -10)" fill="#9b7dd4"/>
</svg>
